<?xml version="1.0" standalone="no"?>
<!DOCTYPE svg PUBLIC "-//W3C//DTD SVG 20010904//EN"
 "http://www.w3.org/TR/2001/REC-SVG-20010904/DTD/svg10.dtd">
<svg version="1.0" xmlns="http://www.w3.org/2000/svg"
 width="1182.000000pt" height="1182.000000pt" viewBox="0 0 1182.000000 1182.000000"
 preserveAspectRatio="xMidYMid meet">
<metadata>
Created by potrace 1.10, written by Peter Selinger 2001-2011
</metadata>
<g transform="translate(0.000000,1182.000000) scale(0.100000,-0.100000)"
fill="#000000" stroke="none">
<path d="M4492 11060 c-18 -11 -62 -24 -99 -30 -47 -6 -73 -16 -92 -33 -14
-14 -35 -29 -46 -35 -12 -6 -32 -40 -49 -82 l-27 -71 40 -108 c23 -60 41 -115
41 -122 0 -8 -19 -26 -43 -41 -24 -15 -64 -47 -90 -70 -25 -24 -69 -63 -97
-88 -27 -25 -50 -49 -50 -53 0 -5 -12 -22 -27 -37 -53 -55 -81 -96 -92 -136
-6 -23 -20 -53 -32 -68 -27 -34 -40 -126 -42 -296 -2 -170 16 -325 43 -362 11
-15 24 -46 29 -69 5 -23 21 -53 35 -66 14 -13 26 -29 26 -36 0 -21 134 -147
156 -147 8 0 21 -11 29 -24 9 -13 28 -27 42 -31 15 -3 42 -18 59 -33 18 -15
51 -40 74 -57 22 -16 59 -48 83 -69 l42 -39 -2 -104 c-3 -118 7 -135 55 -91
15 14 41 29 57 32 17 4 40 17 53 29 13 12 42 31 65 42 22 11 49 32 60 47 18
24 18 32 8 90 -8 48 -17 67 -36 81 -14 10 -25 24 -25 31 0 7 -12 25 -27 39
-16 15 -36 35 -46 45 -10 9 -28 27 -41 40 -13 12 -45 26 -70 31 -29 5 -53 17
-62 29 -8 11 -29 23 -47 27 -17 4 -43 17 -57 30 -14 12 -41 28 -61 34 -20 7
-45 21 -55 33 -11 11 -29 24 -42 29 -12 5 -25 17 -29 26 -3 10 -18 30 -33 44
-19 17 -29 40 -34 73 -4 26 -18 63 -32 83 -26 39 -32 99 -25 273 2 68 7 91 25
115 12 17 27 43 35 60 12 29 20 38 79 100 16 17 34 40 40 51 14 26 73 40 102
24 22 -12 26 -68 10 -150 -13 -68 5 -137 48 -185 59 -66 87 -85 140 -95 27 -5
66 -19 86 -31 34 -20 44 -21 159 -14 130 7 318 45 377 76 39 20 167 49 216 49
42 0 95 -18 119 -42 23 -21 77 -60 119 -85 16 -10 39 -28 51 -40 12 -12 39
-26 61 -31 22 -5 52 -21 67 -36 l28 -28 307 4 307 3 55 26 c30 15 80 29 110
32 31 4 66 15 83 27 15 12 50 25 78 29 27 5 60 17 72 28 12 11 40 26 62 33 22
7 49 21 60 31 11 10 50 43 87 74 39 33 71 69 77 87 6 17 20 37 31 45 12 8 23
31 26 55 4 24 16 49 29 60 13 11 28 39 35 63 7 25 27 57 49 78 l36 36 42 -27
c23 -15 47 -40 54 -55 6 -15 20 -32 30 -37 9 -6 23 -27 29 -47 6 -21 23 -62
37 -91 22 -45 25 -61 20 -113 -4 -32 -15 -76 -26 -97 -10 -20 -22 -66 -26
-102 -4 -39 -16 -81 -30 -106 -13 -22 -27 -65 -31 -95 -4 -30 -17 -70 -30 -89
-14 -23 -26 -63 -32 -114 -7 -54 -16 -84 -31 -100 -15 -16 -22 -43 -29 -114
-7 -72 -14 -98 -30 -115 -20 -21 -22 -41 -31 -242 -5 -121 -8 -285 -6 -365 2
-80 -1 -185 -7 -234 -12 -87 -12 -89 11 -107 13 -11 30 -19 38 -19 19 0 92
-44 142 -85 55 -47 91 -60 110 -41 13 14 13 27 3 103 -16 118 -17 446 -2 728
10 189 16 239 32 280 14 33 24 96 33 195 7 86 19 161 29 185 10 22 24 92 32
156 7 64 20 134 28 155 7 22 21 92 31 157 22 147 11 268 -30 327 -14 20 -25
48 -25 62 0 14 -13 42 -29 62 -16 20 -32 50 -36 65 -3 16 -17 39 -31 51 -13
13 -24 28 -24 34 0 12 -82 99 -147 158 -23 20 -57 41 -77 46 -19 6 -49 20 -66
32 -24 17 -53 23 -147 30 -65 5 -128 10 -140 10 -35 0 -43 -27 -32 -111 5 -40
10 -149 11 -242 1 -158 0 -168 -20 -190 -12 -13 -27 -38 -33 -57 -17 -50 -134
-190 -158 -190 -6 0 -25 -13 -43 -28 -18 -16 -48 -32 -66 -35 -19 -4 -47 -18
-63 -31 -23 -19 -44 -25 -106 -30 -43 -4 -101 -11 -130 -16 -32 -6 -64 -5 -85
1 -18 5 -89 12 -157 16 -108 5 -127 9 -150 29 -15 12 -39 26 -54 29 -42 11
-37 54 13 99 22 20 48 36 58 36 9 0 37 14 61 30 24 17 48 30 54 30 5 0 24 12
43 28 18 15 50 40 71 56 53 41 103 104 103 130 0 12 9 39 20 61 11 22 20 44
20 50 0 6 -9 28 -20 50 -11 22 -20 48 -20 58 0 11 -13 24 -36 33 -20 9 -50 25
-66 37 -28 21 -40 22 -213 22 -174 0 -185 -1 -213 -22 -17 -13 -49 -27 -71
-32 -22 -5 -54 -21 -71 -35 -18 -14 -35 -26 -40 -26 -7 0 -75 -52 -105 -80
-48 -45 -117 -137 -141 -190 -9 -19 -24 -44 -34 -55 -10 -12 -20 -42 -23 -74
-3 -42 -10 -59 -28 -73 -13 -10 -33 -27 -44 -38 -11 -11 -42 -26 -69 -34 -26
-8 -57 -23 -68 -33 -17 -15 -42 -18 -169 -21 -137 -3 -151 -2 -177 17 -16 11
-53 28 -83 38 -39 13 -60 27 -77 53 -23 33 -24 41 -19 148 4 73 11 123 21 142
9 17 24 45 33 62 21 41 117 136 163 163 18 11 45 27 60 35 35 21 90 72 90 85
0 5 13 21 29 35 26 22 30 32 32 85 4 131 5 127 -72 204 -52 52 -78 71 -98 71
-14 0 -47 11 -73 25 -57 30 -102 32 -146 5z m121 -232 c52 -57 53 -87 5 -110
-20 -10 -43 -27 -52 -40 l-16 -22 -22 20 c-13 11 -36 28 -51 38 -26 16 -28 21
-25 74 3 55 4 57 38 69 62 21 82 16 123 -29z m-247 -33 c13 -8 24 -30 28 -55
5 -30 12 -43 30 -50 13 -5 27 -18 31 -29 3 -12 18 -35 32 -51 32 -39 26 -69
-28 -122 -21 -21 -39 -44 -39 -50 0 -6 -12 -27 -26 -46 -15 -19 -31 -53 -36
-75 -16 -73 -41 -84 -97 -43 -19 14 -46 28 -62 31 -16 4 -29 9 -29 12 0 3 32
39 71 81 75 81 100 125 118 207 10 41 9 58 -2 85 -18 43 -30 120 -19 120 4 0
17 -7 28 -15z m2724 -215 c22 -11 44 -20 51 -20 21 0 132 -80 166 -120 31 -36
43 -70 24 -70 -4 0 -22 5 -38 11 -35 12 -90 -6 -127 -41 -12 -11 -49 -45 -83
-76 -35 -32 -63 -63 -63 -70 0 -7 -10 -25 -23 -41 -13 -15 -26 -36 -30 -45 -3
-10 -11 -18 -17 -18 -11 0 -14 33 -3 44 4 4 8 23 10 43 1 20 10 57 19 83 14
39 15 59 6 133 -12 103 -1 170 31 192 27 19 30 19 77 -5z m-1107 -106 c30 -5
43 -15 67 -51 39 -57 38 -87 -2 -125 -51 -48 -117 -90 -135 -86 -10 2 -20 17
-24 35 -3 18 -14 44 -23 57 -9 14 -16 32 -16 40 0 8 -11 28 -25 45 -42 49 -14
72 110 89 6 1 27 -1 48 -4z m-236 -110 c14 -4 26 -19 34 -41 13 -41 6 -116
-12 -122 -7 -2 -26 -17 -43 -32 -34 -31 -123 -92 -150 -102 -14 -6 -72 34 -99
68 -15 19 1 89 25 110 13 11 32 32 41 48 10 15 22 27 28 27 6 0 24 11 41 25
30 25 83 33 135 19z m-338 -261 c40 -79 106 -122 192 -126 61 -4 64 -5 73 -33
18 -60 42 -100 79 -134 28 -25 37 -40 32 -52 -9 -22 -43 -23 -64 -3 -25 25
-83 62 -126 83 -22 10 -60 35 -84 56 -23 20 -55 39 -70 42 -111 22 -144 46
-134 98 10 55 44 106 69 106 8 0 22 -17 33 -37z m1882 -1606 c-8 -8 -11 -4
-11 14 0 33 14 47 18 19 2 -12 -1 -27 -7 -33z"/>
<path d="M5525 8921 c-22 -5 -56 -15 -75 -23 -19 -9 -79 -21 -132 -27 -66 -8
-111 -19 -142 -35 -25 -13 -72 -27 -105 -31 -36 -4 -71 -15 -85 -26 -14 -11
-51 -24 -83 -31 -32 -6 -67 -19 -79 -29 -11 -10 -42 -25 -68 -33 -27 -8 -55
-24 -62 -35 -8 -11 -31 -23 -52 -27 -20 -3 -48 -17 -62 -29 -14 -12 -38 -26
-54 -29 -16 -4 -43 -18 -59 -32 -16 -13 -35 -24 -42 -24 -7 0 -31 -15 -54 -32
-22 -18 -59 -46 -81 -63 -23 -16 -46 -36 -53 -43 -7 -8 -39 -42 -72 -76 -105
-109 -170 -186 -183 -219 -8 -17 -25 -41 -38 -54 -13 -12 -24 -31 -24 -42 0
-11 -11 -32 -24 -48 -13 -16 -27 -47 -31 -68 -4 -22 -18 -57 -31 -78 -14 -20
-31 -71 -39 -111 -7 -41 -21 -88 -29 -104 -36 -69 -29 -541 9 -599 9 -13 20
-50 25 -81 6 -31 18 -68 29 -83 11 -14 25 -46 31 -70 7 -24 23 -56 36 -72 13
-16 24 -34 24 -40 0 -6 11 -23 25 -37 14 -14 48 -49 75 -77 28 -29 55 -53 60
-53 5 0 11 -8 15 -18 3 -11 16 -24 29 -30 13 -6 35 -20 47 -32 34 -31 88 -67
129 -86 19 -9 40 -24 47 -34 7 -10 32 -20 59 -24 31 -4 54 -14 69 -30 15 -16
39 -27 69 -31 26 -4 60 -18 75 -30 15 -13 52 -28 85 -34 32 -6 73 -20 92 -32
24 -14 57 -22 111 -26 43 -3 110 -16 150 -29 68 -23 83 -24 341 -24 260 0 272
1 333 24 43 16 98 26 167 31 77 5 108 12 126 26 14 11 54 23 97 29 48 7 81 17
94 30 11 11 45 25 75 31 30 6 68 22 83 35 16 13 37 24 46 24 10 0 33 11 52 25
19 13 44 29 56 34 12 5 49 31 83 58 34 26 72 55 85 64 14 8 35 26 48 40 13 13
45 42 70 64 26 22 47 44 47 48 0 5 15 23 33 42 51 53 65 71 86 113 11 21 27
44 35 51 9 8 19 31 23 53 3 22 16 52 29 68 16 19 27 49 33 94 5 37 20 83 32
103 22 35 23 47 23 213 0 167 -1 178 -25 230 -14 31 -29 72 -33 93 -4 21 -23
56 -46 83 -44 50 -52 90 -22 117 10 10 23 17 28 17 18 -1 96 -60 153 -117 32
-32 89 -88 127 -126 90 -88 124 -127 124 -142 0 -7 10 -20 21 -31 12 -10 30
-38 41 -61 10 -23 26 -46 34 -51 8 -5 20 -28 25 -53 6 -24 19 -53 29 -64 10
-11 24 -43 30 -70 6 -27 20 -60 31 -71 14 -15 24 -48 33 -108 8 -53 19 -93 31
-105 20 -23 44 -125 45 -192 0 -25 6 -65 14 -90 19 -60 28 -311 15 -434 -15
-140 -46 -274 -74 -315 -13 -19 -27 -54 -31 -78 -4 -24 -19 -59 -35 -79 -16
-20 -29 -42 -29 -49 0 -8 -13 -33 -30 -56 -16 -22 -30 -45 -30 -51 0 -10 -12
-25 -108 -142 -32 -38 -64 -79 -72 -91 -14 -19 -159 -155 -225 -210 -81 -67
-103 -84 -112 -84 -6 0 -18 -10 -29 -21 -10 -12 -37 -30 -60 -40 -22 -10 -48
-27 -58 -38 -10 -11 -31 -23 -47 -26 -16 -4 -42 -17 -57 -29 -15 -13 -40 -26
-56 -30 -16 -4 -42 -18 -57 -31 -16 -13 -48 -26 -71 -30 -24 -4 -59 -17 -78
-30 -21 -14 -59 -26 -93 -30 -34 -4 -68 -16 -83 -28 -21 -16 -54 -23 -158 -33
-88 -9 -147 -20 -179 -34 -46 -20 -63 -21 -425 -21 -432 1 -523 5 -607 31 -46
15 -116 22 -300 30 -187 8 -253 14 -300 29 -48 15 -98 20 -242 23 -172 3 -183
2 -210 -18 -24 -18 -28 -29 -31 -81 -3 -57 -1 -62 40 -114 23 -30 49 -58 57
-63 7 -5 31 -24 51 -42 21 -19 42 -34 47 -34 5 0 22 -13 38 -30 16 -16 34 -30
40 -30 6 0 22 -11 35 -24 12 -14 35 -28 51 -31 15 -4 45 -20 65 -36 20 -16 47
-29 60 -29 12 0 36 -11 52 -25 17 -14 51 -29 77 -34 25 -5 56 -18 68 -30 17
-15 42 -22 96 -27 52 -5 83 -14 108 -31 26 -17 54 -25 111 -29 43 -4 97 -15
122 -26 136 -61 1004 -61 1180 0 30 11 91 22 135 26 52 5 92 15 115 28 23 14
64 24 119 29 64 6 92 13 115 30 21 16 52 26 93 30 39 4 71 14 88 27 14 11 50
26 79 32 30 6 61 19 70 29 10 10 37 24 61 31 24 7 52 21 61 31 9 11 35 24 58
30 22 6 51 22 63 35 12 13 29 24 37 24 8 0 32 15 55 32 22 18 59 47 82 63 23
17 53 42 67 58 15 15 30 27 35 27 15 0 245 237 262 270 9 17 23 39 31 48 24
27 62 84 81 122 10 19 30 50 45 68 16 18 28 43 28 56 0 13 11 40 25 61 14 20
28 57 32 82 3 25 16 57 29 72 12 15 27 52 33 86 6 32 19 67 28 77 10 12 22 53
29 106 7 48 23 114 36 147 23 59 23 65 23 456 l0 396 -27 39 c-17 26 -28 59
-32 99 -4 38 -15 71 -28 90 -12 16 -25 51 -29 77 -4 26 -19 62 -32 80 -14 18
-28 55 -31 81 -5 31 -14 52 -27 60 -11 7 -24 29 -30 49 -5 21 -20 48 -33 60
-13 13 -26 35 -30 49 -8 36 -73 121 -166 216 -48 49 -80 85 -80 92 0 4 -11 13
-25 19 -14 6 -25 18 -25 27 0 8 -12 22 -26 32 -34 22 -104 91 -104 103 0 5
-10 12 -22 15 -13 4 -34 17 -48 30 -14 12 -40 27 -58 33 -18 6 -45 20 -60 30
-15 11 -38 23 -52 27 -14 4 -38 18 -55 30 -16 12 -47 28 -67 34 -20 7 -47 21
-60 31 -13 10 -53 24 -89 30 -35 6 -78 20 -96 31 -24 15 -62 22 -167 29 -106
8 -144 15 -176 31 -37 19 -52 21 -124 15 -46 -3 -99 -12 -117 -20 -19 -8 -61
-17 -94 -21 -88 -10 -93 -13 -104 -52 -17 -62 11 -83 110 -83 21 0 60 -8 86
-19 30 -11 89 -21 158 -26 91 -5 116 -11 146 -30 20 -13 53 -27 73 -31 20 -3
42 -12 49 -19 7 -6 31 -24 55 -39 23 -14 53 -43 67 -64 14 -20 32 -47 41 -59
11 -15 18 -60 25 -150 11 -157 -1 -246 -36 -269 -14 -9 -27 -33 -34 -59 -6
-25 -20 -49 -30 -55 -11 -5 -23 -20 -27 -32 -3 -13 -27 -42 -53 -65 -25 -24
-57 -54 -71 -68 -14 -14 -30 -25 -34 -25 -5 0 -26 -15 -47 -32 -79 -67 -105
-85 -129 -93 -14 -4 -37 -18 -52 -30 -15 -12 -48 -26 -74 -30 -28 -4 -61 -17
-77 -31 -26 -22 -39 -24 -135 -26 -59 -2 -183 -1 -277 1 -154 3 -174 5 -215
26 -25 13 -72 26 -104 30 -38 5 -67 15 -85 31 -16 13 -47 26 -70 30 -25 4 -52
16 -65 30 -13 15 -41 27 -70 33 -29 5 -56 17 -65 29 -9 11 -32 25 -52 31 -20
7 -44 20 -54 31 -9 10 -31 22 -47 25 -48 11 -241 182 -272 242 -8 16 -23 37
-35 47 -12 11 -21 25 -21 33 0 8 -11 24 -25 37 -14 13 -32 43 -40 67 -9 23
-24 51 -34 60 -10 10 -21 39 -25 69 -4 29 -16 65 -28 81 -29 38 -36 100 -31
254 5 132 14 179 38 189 8 3 17 25 20 50 5 30 17 56 36 76 16 16 29 35 29 41
0 6 15 29 33 51 39 50 199 208 209 208 4 0 22 13 40 29 18 15 43 31 56 35 12
4 27 16 32 26 6 11 29 24 52 31 24 6 52 21 63 33 12 13 39 26 65 30 23 4 55
17 71 30 16 14 47 26 78 30 28 4 73 19 102 33 50 26 56 27 238 28 187 0 188 0
227 -27 21 -14 58 -31 80 -37 23 -6 47 -18 54 -26 6 -7 31 -21 56 -31 24 -9
46 -25 49 -34 3 -10 19 -23 36 -29 17 -6 43 -21 59 -34 15 -13 46 -27 67 -30
22 -4 48 -16 57 -26 39 -43 112 -38 164 10 57 54 40 109 -70 216 -24 24 -48
43 -54 43 -6 0 -21 11 -34 24 -12 14 -36 28 -51 31 -16 4 -42 18 -58 31 -21
18 -49 27 -100 33 -43 6 -85 18 -107 32 -35 21 -48 22 -263 25 -124 2 -244 -1
-266 -5z m-816 -455 c-18 -25 -41 -48 -50 -51 -10 -4 -21 -15 -24 -25 -3 -11
-21 -32 -40 -47 -21 -18 -37 -43 -44 -69 -6 -23 -17 -44 -24 -47 -19 -7 -84
-143 -108 -224 -38 -130 -35 -302 6 -443 28 -97 122 -293 151 -316 8 -6 20
-27 28 -46 8 -19 23 -41 32 -49 9 -8 22 -26 28 -40 12 -27 110 -119 127 -119
5 0 17 -16 25 -35 8 -19 27 -41 42 -49 16 -8 35 -22 43 -32 8 -9 41 -29 74
-44 33 -15 66 -34 74 -43 7 -9 32 -22 55 -28 22 -6 57 -21 76 -33 66 -42 150
-78 350 -148 30 -10 117 -30 193 -43 128 -23 150 -24 300 -15 227 13 401 63
497 143 17 15 41 27 52 27 11 0 38 16 59 35 22 19 45 35 52 35 8 0 22 9 32 20
10 11 22 20 27 20 23 0 79 58 88 91 6 22 20 41 36 49 14 8 35 27 46 42 10 15
26 28 34 28 23 0 16 -35 -20 -97 -19 -32 -39 -77 -46 -100 -6 -23 -22 -51 -36
-62 -14 -11 -38 -38 -54 -60 -41 -57 -208 -221 -224 -221 -13 0 -32 -14 -131
-93 -16 -13 -49 -26 -71 -29 -23 -3 -55 -15 -70 -26 -44 -32 -221 -98 -299
-112 -38 -7 -99 -21 -135 -31 -101 -28 -225 -39 -465 -39 -176 0 -243 4 -335
20 -63 11 -142 25 -175 31 -33 5 -91 22 -130 36 -38 14 -88 28 -110 30 -22 3
-47 11 -55 18 -8 7 -49 30 -90 53 -201 108 -246 139 -348 237 -64 62 -113 118
-128 149 -13 26 -35 57 -48 67 -18 14 -27 36 -36 86 -7 38 -23 100 -36 138
-33 101 -46 280 -30 416 7 58 18 115 25 126 6 12 11 39 11 61 0 23 12 63 29
98 17 32 33 75 36 95 4 21 13 43 22 50 8 7 33 47 56 88 23 42 61 99 84 129 24
29 48 64 53 77 5 14 20 29 32 34 13 5 51 35 85 67 165 156 208 189 268 205 22
6 45 20 53 30 7 10 25 19 40 20 15 0 36 4 47 8 11 5 21 7 23 6 2 -2 -11 -24
-29 -49z m3049 -1251 c3 -25 2 -27 -12 -16 -19 16 -22 55 -3 49 6 -3 14 -17
15 -33z m63 -72 c29 -46 62 -107 82 -149 8 -18 22 -36 31 -41 16 -9 56 -104
56 -131 0 -8 13 -42 28 -76 30 -63 41 -110 66 -261 28 -174 35 -271 29 -395
-3 -69 -5 -152 -4 -185 1 -33 -5 -80 -14 -104 -8 -24 -15 -64 -15 -90 0 -25
-6 -66 -14 -91 -47 -150 -66 -217 -66 -230 0 -8 -16 -46 -35 -84 -19 -39 -35
-76 -35 -84 0 -8 -8 -31 -19 -51 -10 -20 -37 -74 -61 -121 -23 -47 -52 -96
-64 -110 -38 -42 -56 -73 -56 -97 0 -14 -9 -28 -22 -34 -13 -6 -49 -43 -82
-81 -32 -38 -69 -74 -82 -80 -12 -6 -28 -24 -33 -39 -6 -18 -21 -33 -38 -40
-15 -5 -38 -21 -51 -35 -13 -13 -45 -35 -72 -49 -26 -13 -58 -38 -70 -55 -16
-23 -29 -30 -55 -30 -21 0 -44 -9 -62 -24 -57 -48 -271 -147 -378 -175 -17 -4
-40 -13 -52 -19 -12 -7 -36 -12 -53 -12 -17 0 -47 -8 -68 -19 -46 -22 -74 -30
-182 -46 -47 -7 -110 -20 -140 -28 -30 -9 -109 -23 -175 -32 -66 -8 -140 -20
-165 -26 -25 -5 -61 -13 -80 -18 -69 -15 -438 -4 -543 17 -54 10 -108 17 -121
15 -13 -3 -52 3 -87 12 -35 9 -89 18 -120 21 -31 2 -74 11 -95 20 -41 17 -115
38 -198 55 -28 6 -60 19 -73 29 -13 10 -55 26 -94 35 -40 10 -81 27 -91 37
-11 11 -35 26 -54 34 -19 8 -51 29 -72 48 -20 18 -50 36 -67 40 -17 4 -53 31
-83 63 -52 54 -53 56 -35 75 15 17 26 19 66 15 26 -4 60 -2 74 4 19 7 45 6 94
-6 37 -8 104 -15 148 -15 44 0 106 -7 138 -15 63 -16 311 -36 494 -40 63 -1
125 -8 137 -14 43 -23 686 -13 757 11 17 6 77 16 135 24 63 8 129 23 165 38
33 14 71 26 83 26 33 0 133 30 157 46 11 8 26 14 34 14 8 0 51 18 95 39 45 22
101 47 126 57 25 10 56 26 70 37 33 25 142 96 194 125 23 13 48 29 56 37 8 7
30 20 47 29 18 9 40 30 48 46 8 16 29 37 46 46 41 21 259 239 259 259 0 8 21
39 48 69 26 29 65 84 87 121 22 37 55 89 73 116 17 27 32 52 32 57 0 10 65
165 84 202 30 56 37 129 37 390 1 462 -6 527 -67 649 -10 19 -19 57 -22 85 -3
28 -11 60 -18 71 -8 11 -14 34 -14 53 0 18 -5 42 -11 53 -9 18 -7 49 5 49 2 0
15 -17 27 -37z"/>
<path d="M4318 6103 c-10 -12 -18 -51 -22 -118 -4 -55 -11 -161 -15 -235 -7
-93 -16 -154 -30 -195 -13 -35 -25 -104 -30 -165 -6 -72 -15 -118 -29 -145
-11 -22 -26 -73 -32 -112 -7 -44 -20 -83 -33 -99 -14 -18 -21 -42 -21 -73 l-1
-46 71 0 c69 0 71 1 108 40 44 47 56 66 56 94 0 11 11 33 25 49 13 16 28 47
33 70 5 22 19 53 31 68 12 15 24 44 27 66 4 21 20 55 35 75 25 30 29 45 29 96
0 53 4 65 28 90 26 28 27 31 32 181 4 122 8 157 23 179 23 35 22 50 -8 85 -19
23 -37 32 -75 37 -36 5 -62 17 -91 41 -46 38 -87 44 -111 17z m130 -265 c-2
-13 -7 -23 -13 -23 -5 0 -11 10 -13 23 -2 15 2 22 13 22 11 0 15 -7 13 -22z
m10 -101 c5 -23 -24 -67 -43 -67 -19 0 -21 76 -2 83 22 10 42 2 45 -16z"/>
<path d="M8063 4908 c-17 -27 -33 -55 -56 -98 -31 -59 -72 -120 -97 -145 -23
-24 -27 -86 -7 -107 25 -24 34 -52 41 -118 5 -42 15 -77 30 -100 13 -19 26
-57 30 -83 3 -27 15 -61 26 -77 11 -15 25 -52 31 -81 6 -30 22 -67 35 -82 13
-16 24 -34 24 -41 0 -7 10 -21 21 -32 12 -10 34 -38 50 -61 33 -47 109 -103
141 -103 34 0 86 46 93 83 3 17 2 69 -3 114 -8 66 -15 89 -35 113 -15 17 -29
47 -33 68 -3 20 -15 50 -26 65 -10 15 -25 59 -33 98 -7 40 -21 80 -33 92 -13
14 -21 43 -25 81 -4 37 -14 70 -26 87 -23 31 -58 159 -70 255 -5 34 -11 66
-15 73 -10 15 -53 14 -63 -1z m137 -702 c0 -25 -26 -54 -37 -42 -4 4 -2 16 5
26 7 11 12 27 12 35 0 9 5 13 10 10 6 -3 10 -17 10 -29z"/>
<path d="M6666 2998 c-40 -57 70 -106 116 -51 11 13 7 20 -22 44 -41 34 -73
37 -94 7z"/>
<path d="M6126 2991 c-17 -19 -17 -22 9 -66 32 -54 51 -55 72 -2 14 33 14 40
-1 62 -20 30 -56 33 -80 6z"/>
<path d="M5422 2988 c-18 -18 -15 -38 16 -82 24 -35 27 -48 26 -116 -1 -62 -5
-82 -23 -106 -12 -16 -24 -46 -28 -67 -5 -33 -3 -38 21 -47 38 -14 99 -12 121
4 17 13 18 17 5 70 -9 41 -11 95 -7 200 5 125 4 145 -9 150 -27 11 -110 6
-122 -6z"/>
<path d="M5891 2982 c-8 -15 -8 -43 0 -102 8 -60 8 -111 0 -188 -6 -58 -8
-109 -4 -113 12 -12 481 -17 493 -5 29 29 -10 86 -60 86 -16 0 -40 5 -54 11
-21 10 -35 8 -83 -14 -53 -23 -90 -31 -133 -28 -18 1 -80 78 -80 98 0 7 13 19
30 28 24 13 37 13 73 3 64 -17 77 -8 77 52 0 45 -2 50 -22 50 -12 0 -34 -12
-49 -26 -16 -16 -34 -24 -43 -21 -13 5 -46 66 -46 84 0 3 17 21 37 39 48 44
36 57 -56 62 -61 4 -70 2 -80 -16z"/>
<path d="M6502 2988 c-5 -7 -15 -30 -23 -50 -12 -34 -11 -42 9 -83 12 -25 28
-45 35 -45 16 0 116 -73 135 -97 19 -27 15 -81 -7 -88 -31 -9 -67 4 -96 36
-22 26 -32 30 -68 27 -39 -3 -42 -5 -45 -34 -2 -25 4 -37 33 -63 39 -34 48
-35 149 -21 74 11 161 57 171 92 14 43 -48 143 -95 153 -40 9 -107 72 -115
110 -15 64 -56 95 -83 63z"/>
<path d="M5676 2675 c-22 -22 -31 -82 -16 -100 23 -27 101 -13 114 21 10 27
-12 81 -37 88 -34 9 -44 7 -61 -9z"/>
<path d="M3964 2363 c-12 -2 -30 -13 -40 -24 -16 -17 -16 -27 -5 -120 11 -90
11 -103 -4 -126 -14 -21 -22 -24 -48 -18 -82 17 -102 17 -124 -3 -13 -10 -42
-27 -65 -36 -37 -14 -48 -26 -77 -80 -30 -57 -33 -70 -29 -124 3 -39 11 -68
22 -81 9 -10 21 -32 25 -47 7 -27 13 -30 96 -47 80 -17 92 -17 133 -4 28 10
53 12 67 7 12 -4 47 -11 78 -15 45 -6 62 -4 82 9 32 21 32 41 -2 90 l-28 39 0
233 c0 229 0 233 23 254 33 31 28 56 -18 80 -39 20 -46 21 -86 13z m-67 -331
c18 -11 33 -101 33 -198 0 -72 -3 -87 -21 -105 -11 -11 -27 -18 -34 -15 -8 3
-33 10 -55 16 -82 22 -126 106 -96 185 28 71 133 143 173 117z"/>
<path d="M5004 2346 c-14 -23 -15 -36 -5 -104 6 -42 11 -165 13 -273 2 -172 0
-200 -15 -223 -10 -14 -22 -26 -27 -26 -17 0 -31 -41 -25 -72 8 -34 15 -34 97
-2 42 16 52 17 84 5 30 -11 38 -11 45 0 15 24 10 47 -16 75 l-25 27 0 245 c0
166 4 256 12 279 10 29 9 36 -9 60 -16 22 -29 29 -66 31 -40 3 -48 0 -63 -22z"/>
<path d="M6860 2331 c-14 -5 -43 -20 -64 -35 -21 -14 -45 -26 -53 -26 -27 0
-114 -97 -124 -137 -10 -46 -11 -134 -1 -148 7 -10 66 -49 107 -71 11 -6 21
-19 23 -28 4 -20 -49 -71 -97 -94 -60 -29 -67 -122 -9 -122 39 0 58 -19 58
-59 0 -43 -17 -62 -69 -80 -55 -18 -71 -38 -71 -89 0 -40 5 -49 49 -91 111
-104 100 -98 207 -106 54 -4 156 -5 227 -2 113 4 133 8 156 26 14 12 40 28 57
36 17 8 68 53 112 100 79 83 82 88 82 134 0 37 -7 56 -30 89 -17 22 -41 44
-53 48 -12 3 -33 16 -45 28 -23 20 -33 21 -268 21 -206 0 -246 2 -255 15 -12
18 -5 88 10 103 7 7 60 12 140 12 116 0 132 2 153 21 12 11 35 25 50 32 27 11
104 100 119 137 4 11 10 33 14 48 7 34 58 67 103 67 45 0 67 13 81 49 10 22
10 34 1 50 -14 26 -81 29 -160 5 -45 -13 -61 -14 -99 -3 -25 6 -58 23 -72 36
-39 36 -206 56 -279 34z m143 -104 c18 -8 49 -33 71 -57 38 -42 38 -44 33
-100 -4 -31 -9 -63 -12 -72 -7 -16 -100 -58 -130 -58 -78 1 -164 76 -165 143
0 46 46 110 100 137 44 22 62 23 103 7z m180 -639 c35 -13 67 -58 67 -92 0
-50 -37 -106 -85 -126 -74 -32 -147 -41 -202 -25 -26 7 -68 17 -93 20 -30 5
-58 19 -87 44 -57 48 -57 83 0 145 12 13 27 30 33 38 13 16 323 13 367 -4z"/>
<path d="M738 2307 c-24 -45 -25 -72 -6 -109 10 -21 23 -38 29 -38 13 0 62 36
101 75 25 25 39 30 93 33 l63 4 11 -38 c6 -22 11 -134 11 -261 0 -247 -2 -253
-66 -253 -42 0 -64 -33 -45 -69 14 -25 24 -26 57 -5 20 13 52 17 154 18 70 1
132 4 135 8 12 12 -3 38 -27 47 -13 5 -34 21 -48 36 -25 26 -25 28 -27 233
l-3 207 34 39 c32 38 35 38 80 32 38 -6 57 -17 98 -57 27 -27 53 -49 57 -49 4
0 22 16 39 36 26 29 32 45 32 79 0 33 -4 45 -17 49 -10 2 -181 4 -381 4 -355
-1 -363 -1 -374 -21z"/>
<path d="M1595 2076 c-81 -27 -134 -56 -141 -79 -3 -12 -15 -32 -26 -44 -15
-16 -22 -41 -26 -92 l-5 -70 58 -60 c50 -53 64 -61 113 -72 40 -8 81 -8 145
-1 84 9 91 12 128 48 23 22 45 57 55 86 15 45 15 54 -1 120 -15 57 -25 78 -57
109 -64 62 -156 83 -243 55z m124 -90 c34 -22 40 -31 46 -75 8 -57 -2 -149
-17 -168 -11 -14 -110 -17 -140 -5 -9 4 -30 24 -47 46 -39 49 -43 111 -8 151
23 27 93 72 115 74 7 1 30 -10 51 -23z"/>
<path d="M2640 2071 c-32 -17 -39 -18 -75 -5 -50 17 -72 18 -82 2 -4 -7 -8
-82 -8 -166 l0 -153 -27 -21 c-30 -21 -37 -58 -14 -77 10 -8 27 -8 66 0 29 6
70 8 92 5 66 -11 94 36 43 70 -31 20 -45 69 -45 161 0 85 9 94 82 86 26 -3 59
-2 74 1 25 7 26 10 21 48 -3 22 -10 45 -15 50 -19 19 -77 18 -112 -1z"/>
<path d="M4337 2073 c-9 -11 -35 -26 -57 -33 -49 -16 -49 -17 -84 -107 -18
-45 -27 -82 -23 -100 5 -26 44 -125 60 -149 12 -21 134 -37 218 -30 111 9 129
17 129 60 0 19 -5 38 -11 41 -5 4 -38 1 -72 -5 -62 -13 -63 -12 -120 20 -69
39 -87 62 -87 112 0 28 6 41 24 53 15 10 26 29 30 54 6 42 21 51 84 51 30 0
33 -2 30 -27 -2 -19 -12 -32 -31 -41 -20 -10 -27 -20 -25 -35 4 -25 32 -35
109 -36 66 -1 79 10 86 72 4 33 1 46 -13 58 -26 22 -108 49 -174 55 -46 5 -58
3 -73 -13z"/>
<path d="M5405 2055 c-86 -45 -98 -59 -124 -138 l-21 -63 24 -68 c30 -81 46
-101 94 -117 20 -7 50 -20 67 -30 36 -23 104 -25 131 -4 10 8 36 19 57 25 49
14 73 39 87 90 6 23 20 56 31 73 23 38 25 80 5 97 -8 6 -22 31 -32 55 -24 63
-96 107 -184 112 -59 4 -71 1 -135 -32z m155 -66 c51 -42 67 -100 49 -189 -10
-52 -17 -65 -43 -81 -43 -26 -55 -24 -103 19 -36 33 -42 45 -48 95 -10 79 0
126 30 137 14 5 30 18 37 30 17 27 33 25 78 -11z"/>
<path d="M5966 2071 c-59 -20 -79 -47 -80 -106 -1 -48 24 -84 79 -112 36 -18
105 -83 105 -98 0 -17 -44 -55 -62 -55 -24 0 -97 44 -114 69 -20 28 -42 27
-54 -5 -22 -57 -14 -81 44 -118 45 -30 62 -36 108 -36 40 0 62 5 81 20 14 11
29 20 35 20 5 0 28 22 50 49 58 68 57 98 -5 155 -26 24 -64 49 -84 55 -28 9
-44 22 -63 55 -34 58 -33 66 9 66 25 0 41 -7 57 -25 17 -20 31 -25 65 -25 58
0 64 19 23 70 -31 39 -34 40 -88 39 -32 -1 -79 -9 -106 -18z"/>
<path d="M7537 2083 c-18 -5 -47 -51 -47 -76 0 -8 7 -28 15 -43 10 -20 15 -61
15 -134 0 -63 5 -115 13 -129 8 -16 33 -33 72 -48 71 -28 83 -28 107 -6 20 18
46 19 166 7 85 -8 112 -1 112 32 0 13 -10 39 -22 55 -21 28 -23 42 -23 162 0
73 -4 138 -9 146 -9 14 -67 41 -89 41 -7 0 -21 -6 -31 -13 -16 -12 -16 -18 -1
-107 22 -136 20 -215 -5 -240 -25 -25 -40 -25 -100 1 -63 27 -73 51 -69 176 2
54 0 107 -4 119 -9 25 -75 62 -100 57z"/>
<path d="M8066 2082 c-3 -6 -9 -30 -12 -54 -8 -57 9 -73 66 -63 28 5 47 16 62
35 38 52 75 46 85 -13 7 -43 -8 -69 -85 -154 -61 -67 -102 -128 -102 -149 0
-38 127 -40 175 -2 14 11 25 29 25 41 1 31 33 98 59 121 11 11 21 24 21 31 0
6 12 23 28 38 39 38 72 83 72 100 0 8 -17 26 -37 40 -36 24 -42 25 -96 15 -41
-7 -66 -7 -80 0 -31 15 -173 26 -181 14z"/>
<path d="M9120 2060 c-19 -26 -27 -30 -69 -30 -35 0 -58 7 -85 25 -44 30 -129
34 -178 9 -23 -12 -37 -13 -57 -6 -55 21 -98 23 -116 6 -27 -27 -35 -59 -24
-96 13 -47 11 -215 -3 -256 -11 -30 -11 -35 7 -48 11 -8 32 -12 50 -10 16 3
52 8 78 11 60 8 71 28 31 60 -28 22 -29 26 -32 122 -1 54 1 103 5 108 5 6 27
20 49 32 l41 22 42 -21 c52 -26 58 -45 53 -180 -2 -48 -7 -63 -33 -93 l-31
-35 27 -10 c14 -5 64 -10 109 -10 114 0 127 19 69 96 -18 25 -23 44 -23 93 0
95 23 126 111 146 21 5 32 0 58 -30 46 -53 54 -81 41 -134 -6 -24 -20 -61 -30
-82 -41 -79 -26 -92 100 -87 l75 3 -2 40 c-11 198 -15 221 -40 272 -32 66 -99
113 -161 113 -34 0 -44 -5 -62 -30z"/>
<path d="M10186 2074 c-45 -12 -64 -14 -83 -5 -35 16 -41 14 -57 -18 -12 -23
-14 -55 -9 -167 l6 -140 -32 -27 c-37 -31 -49 -32 -94 -14 -57 24 -61 36 -59
175 1 70 -1 132 -5 137 -26 35 -80 59 -133 60 -63 1 -198 -30 -219 -50 -16
-16 -7 -83 13 -91 14 -5 111 40 121 56 10 17 39 11 70 -14 27 -22 29 -26 19
-62 -7 -29 -5 -51 5 -83 11 -34 12 -55 4 -93 -12 -60 0 -78 55 -78 21 0 55 -9
76 -21 45 -24 81 -19 91 12 7 21 11 21 89 14 145 -13 160 -8 136 48 -8 18 -16
77 -18 136 l-3 104 32 33 c38 39 58 42 84 14 10 -11 24 -20 31 -20 20 0 41
-39 49 -88 9 -55 -11 -139 -42 -176 -22 -27 -23 -30 -8 -45 12 -12 32 -15 83
-13 104 4 122 9 122 40 0 14 -7 33 -16 43 -11 12 -17 45 -20 116 -8 156 -9
158 -62 194 -58 39 -137 47 -226 23z"/>
<path d="M11273 2083 c-21 -8 -15 -20 30 -62 54 -51 91 -68 112 -51 24 20 18
56 -16 89 -25 25 -38 31 -72 30 -23 0 -48 -3 -54 -6z"/>
<path d="M2049 2040 c-9 -31 -9 -46 -1 -66 7 -13 12 -67 12 -118 0 -90 -1 -94
-30 -124 -56 -59 -34 -84 63 -75 44 4 76 2 97 -7 27 -11 33 -11 41 1 16 26 9
58 -18 84 -26 24 -28 31 -31 124 -4 117 3 128 76 108 60 -16 96 -1 100 40 2
18 -2 41 -8 53 -16 29 -74 27 -112 -5 l-29 -25 -49 25 c-73 37 -97 34 -111
-15z"/>
<path d="M2972 2068 c-7 -7 -31 -19 -54 -28 -61 -22 -130 -123 -136 -200 -4
-53 -2 -57 39 -107 58 -69 139 -102 209 -85 25 6 69 14 98 17 55 7 72 23 72
67 0 48 -13 54 -73 33 -48 -16 -60 -17 -102 -5 -101 28 -134 97 -81 169 13 18
27 48 30 67 7 35 33 50 73 42 29 -5 28 -44 -2 -64 -17 -11 -25 -24 -23 -38 3
-18 13 -22 81 -29 57 -6 82 -5 93 3 15 13 19 87 6 105 -4 6 -35 23 -68 38 -65
29 -141 36 -162 15z"/>
<path d="M10880 2042 c0 -32 -25 -72 -46 -72 -15 0 -20 -45 -5 -54 5 -3 40 -9
80 -12 86 -8 101 1 101 61 0 24 -3 51 -6 60 -9 22 -57 45 -94 45 -26 0 -30 -3
-30 -28z"/>
<path d="M10678 2025 c-19 -11 -31 -30 -42 -69 -9 -30 -21 -58 -26 -61 -16
-10 -12 -42 16 -108 32 -77 64 -112 122 -131 40 -14 54 -14 136 0 101 17 121
31 111 79 -8 44 -21 52 -54 32 -40 -23 -91 -21 -146 5 -37 18 -48 30 -57 60
-10 33 -8 45 10 86 31 69 35 91 22 107 -16 19 -57 18 -92 0z"/>
<path d="M11136 2024 c-16 -16 -22 -96 -9 -129 3 -10 27 -27 52 -39 87 -41
121 -69 121 -99 0 -52 -75 -51 -166 2 -19 12 -42 21 -50 21 -20 0 -17 -33 7
-75 36 -60 168 -108 198 -71 7 8 35 23 63 33 41 14 54 25 66 53 29 69 -3 129
-93 176 -50 27 -75 56 -87 101 -10 41 -12 43 -48 43 -22 0 -45 -7 -54 -16z"/>
<path d="M9527 1812 c-29 -30 -37 -46 -37 -75 0 -43 28 -77 64 -77 13 0 44 -3
70 -6 40 -6 46 -4 46 11 0 11 -10 29 -22 43 -16 17 -23 36 -24 70 -2 71 -2 72
-32 72 -19 0 -40 -12 -65 -38z"/>
<path d="M8420 1765 c-5 -14 -21 -30 -34 -35 -34 -13 -49 -42 -32 -65 11 -15
22 -17 69 -11 73 9 83 21 67 86 -10 43 -15 50 -36 50 -17 0 -27 -8 -34 -25z"/>
<path d="M7157 962 c-23 -25 -45 -103 -57 -198 -6 -46 -20 -97 -34 -124 -29
-56 -43 -144 -26 -165 15 -19 60 -19 84 -2 14 10 17 22 14 48 -3 19 0 45 7 59
7 14 16 44 20 67 4 23 15 54 26 67 13 17 23 52 29 103 5 43 12 86 15 96 9 22
-20 67 -44 67 -10 0 -25 -8 -34 -18z"/>
<path d="M6065 945 c-17 -16 -25 -35 -25 -57 0 -18 -5 -49 -10 -69 -6 -20 -14
-68 -19 -107 -6 -47 -16 -80 -32 -101 -18 -25 -24 -45 -24 -89 0 -53 2 -57 25
-60 13 -2 42 1 63 8 39 11 39 12 33 51 -8 52 11 165 35 208 11 18 27 61 35 95
28 109 28 112 3 130 -33 22 -56 20 -84 -9z"/>
<path d="M4505 951 l-40 -6 -7 -87 c-4 -63 -12 -98 -27 -122 -12 -19 -27 -53
-35 -77 -7 -24 -25 -62 -39 -83 -30 -43 -35 -97 -12 -116 15 -13 84 -6 118 12
16 8 18 17 12 59 -6 42 -3 56 18 92 13 23 28 57 32 75 9 42 83 192 95 192 5 0
12 10 16 22 13 42 -30 54 -131 39z"/>
<path d="M5685 924 c-21 -22 -25 -37 -25 -85 0 -49 3 -59 21 -64 23 -7 41 -47
33 -70 -3 -8 1 -43 10 -77 8 -35 14 -83 13 -108 -2 -42 0 -46 35 -65 l38 -20
26 26 26 26 -15 89 c-9 49 -23 107 -33 129 -10 23 -19 82 -23 140 l-6 100 -37
3 c-31 3 -43 -2 -63 -24z"/>
<path d="M5070 805 c-9 -11 -11 -33 -6 -73 7 -62 -5 -113 -34 -147 -22 -25
-41 -81 -34 -100 7 -18 86 -30 111 -16 20 10 33 64 33 137 0 19 11 49 26 71
20 30 25 46 21 76 -3 21 -11 44 -17 52 -16 20 -84 19 -100 0z"/>
<path d="M7313 807 c-4 -6 -8 -41 -8 -77 -1 -71 -29 -157 -65 -195 -11 -12
-20 -31 -20 -43 0 -37 55 -30 94 11 71 76 105 166 90 243 -5 27 -15 39 -45 54
-29 15 -40 17 -46 7z"/>
<path d="M7757 802 c-24 -26 -44 -80 -52 -139 -5 -36 -16 -64 -36 -89 -33 -42
-46 -81 -32 -95 6 -6 37 -9 69 -7 l59 3 22 45 c29 60 52 238 35 274 -14 30
-42 34 -65 8z"/>
<path d="M6860 809 c0 -2 -2 -48 -3 -101 -2 -86 -5 -100 -24 -120 -45 -46 -86
-99 -80 -104 11 -12 73 -19 112 -14 44 6 42 1 89 167 32 113 32 128 2 148 -22
15 -96 33 -96 24z"/>
<path d="M7566 777 c-27 -16 -42 -33 -52 -62 -7 -22 -20 -45 -29 -51 -9 -7
-20 -26 -25 -43 -10 -36 -2 -130 13 -148 12 -16 71 -17 98 -3 26 14 24 32 -6
60 -31 29 -34 79 -5 105 11 10 20 24 20 31 0 7 14 27 31 45 21 22 29 39 27 57
-4 35 -24 37 -72 9z"/>
<path d="M6430 775 c-9 -10 -10 -32 -5 -72 11 -93 15 -104 38 -101 22 3 100
138 89 155 -21 32 -100 44 -122 18z"/>
<path d="M4893 761 c-10 -12 -30 -33 -45 -48 -16 -14 -28 -32 -28 -38 0 -7
-15 -32 -33 -56 -18 -24 -37 -52 -40 -63 -6 -15 -14 -17 -40 -13 -35 5 -161
-23 -178 -40 -15 -15 12 -29 81 -41 46 -9 64 -7 114 9 57 19 61 20 91 3 23
-12 42 -15 69 -10 48 9 55 30 21 62 -23 22 -27 31 -22 64 5 40 43 86 100 123
19 13 27 25 25 40 -3 19 -10 22 -50 25 -37 2 -51 -1 -65 -17z"/>
<path d="M6260 754 c-6 -15 -7 -78 -3 -154 5 -114 8 -130 25 -135 10 -4 27 -3
38 0 11 3 29 3 41 0 19 -6 20 -12 15 -59 -6 -42 -4 -55 9 -66 15 -12 22 -11
53 5 29 16 38 27 40 51 5 47 -41 115 -122 181 -24 20 -26 28 -26 96 0 92 -5
107 -36 107 -17 0 -27 -8 -34 -26z"/>
<path d="M6703 770 c-12 -5 -24 -19 -28 -32 -4 -13 -18 -33 -30 -46 -38 -38
-59 -167 -35 -213 13 -23 57 -25 85 -5 17 12 18 17 7 40 -20 44 -15 91 13 124
14 17 25 33 25 38 0 4 12 25 26 45 14 21 23 43 19 48 -7 13 -51 13 -82 1z"/>
<path d="M5573 724 c-21 -9 -35 -24 -39 -41 -4 -15 -36 -58 -71 -95 -44 -47
-63 -75 -63 -93 0 -37 17 -65 40 -65 21 0 72 57 96 109 9 19 42 59 72 88 51
49 55 55 46 80 -11 33 -35 38 -81 17z"/>
<path d="M6157 453 c-11 -10 -8 -52 4 -75 40 -75 101 -100 107 -44 6 48 -7 75
-48 101 -42 26 -52 29 -63 18z"/>
</g>
</svg>
